<svg xmlns="http://www.w3.org/2000/svg" viewBox="0 0 160 180"><ellipse cx="80" cy="160" rx="45" ry="12" fill="#000" opacity=".25"/><path d="M76 86 C64 114 62 139 55 164 L91 164 C86 133 94 108 84 84Z" fill="#5b3929"/><path d="M47 79 C8 58 22 16 65 26 C78 -3 122 7 122 44 C158 50 152 103 105 101 C89 130 38 119 47 79Z" fill="#f4a8bc"/><path d="M60 84 C56 58 78 43 101 49 C88 61 82 80 91 99 C78 94 69 89 60 84Z" fill="#ffd6e0" opacity=".72"/><circle cx="108" cy="35" r="7" fill="#fff2b0"/><circle cx="42" cy="60" r="5" fill="#fff2b0"/></svg>