<svg xmlns="http://www.w3.org/2000/svg" viewBox="0 0 640 760" role="img" aria-label="Soul Online opening hero illustration">
  <defs>
    <radialGradient id="aura" cx="50%" cy="38%" r="58%">
      <stop offset="0" stop-color="#ffe8a3" stop-opacity="0.92"/>
      <stop offset="0.34" stop-color="#6de7ff" stop-opacity="0.28"/>
      <stop offset="0.72" stop-color="#120d17" stop-opacity="0"/>
    </radialGradient>
    <linearGradient id="steel" x1="0" y1="0" x2="1" y2="1">
      <stop offset="0" stop-color="#fff5d6"/>
      <stop offset="0.22" stop-color="#9fb7c7"/>
      <stop offset="0.52" stop-color="#313a46"/>
      <stop offset="1" stop-color="#e2b95f"/>
    </linearGradient>
    <linearGradient id="cloak" x1="0" y1="0" x2="0" y2="1">
      <stop offset="0" stop-color="#263b63"/>
      <stop offset="0.48" stop-color="#221c31"/>
      <stop offset="1" stop-color="#07090b"/>
    </linearGradient>
    <linearGradient id="gold" x1="0" y1="0" x2="1" y2="1">
      <stop offset="0" stop-color="#fff1a7"/>
      <stop offset="0.46" stop-color="#e2b95f"/>
      <stop offset="1" stop-color="#7d401e"/>
    </linearGradient>
    <linearGradient id="soul" x1="0" y1="0" x2="1" y2="1">
      <stop offset="0" stop-color="#9bf6ff"/>
      <stop offset="0.48" stop-color="#5ba8ff"/>
      <stop offset="1" stop-color="#9d78d9"/>
    </linearGradient>
    <filter id="softShadow" x="-40%" y="-40%" width="180%" height="180%">
      <feDropShadow dx="0" dy="26" stdDeviation="20" flood-color="#000" flood-opacity="0.66"/>
      <feDropShadow dx="0" dy="0" stdDeviation="18" flood-color="#e2b95f" flood-opacity="0.18"/>
    </filter>
    <filter id="glow" x="-60%" y="-60%" width="220%" height="220%">
      <feGaussianBlur stdDeviation="6" result="b"/>
      <feMerge><feMergeNode in="b"/><feMergeNode in="SourceGraphic"/></feMerge>
    </filter>
  </defs>

  <rect width="640" height="760" fill="none"/>
  <ellipse cx="320" cy="316" rx="306" ry="324" fill="url(#aura)"/>
  <g opacity="0.58" filter="url(#glow)">
    <path d="M92 569c74-38 155-54 236-50 93 5 171 34 224 72-83 34-167 49-253 45-82-4-151-25-207-67z" fill="#e2b95f" opacity="0.18"/>
    <path d="M126 585c95-31 236-42 382 7" fill="none" stroke="#ffe8a3" stroke-width="3" stroke-opacity="0.42"/>
  </g>

  <g opacity="0.42" filter="url(#softShadow)">
    <path d="M111 585c3-78 24-160 70-244 35 77 54 154 61 230-38 16-78 19-131 14z" fill="#111722"/>
    <path d="M174 263c-14 30-13 56 3 79 22-13 35-32 40-58-8-16-22-24-43-21z" fill="#27354f"/>
    <path d="M458 280c50 83 75 181 78 301-47 14-93 12-137-8 10-108 29-203 59-293z" fill="#14101f"/>
    <path d="M439 250c-5 27 6 53 29 77 23-22 31-48 20-77-15-10-31-10-49 0z" fill="#35274f"/>
    <circle cx="459" cy="392" r="19" fill="url(#soul)" opacity="0.7"/>
    <path d="M459 318v160" stroke="#8eeeff" stroke-width="5" stroke-linecap="round" opacity="0.48"/>
  </g>

  <g filter="url(#softShadow)">
    <path d="M318 107c-21 12-34 35-31 64 3 31 22 55 45 55 22 0 40-24 43-55 2-29-11-52-32-64-8-5-17-5-25 0z" fill="#f1c79e"/>
    <path d="M278 155c12-48 40-70 78-63 25 14 37 37 35 67-28-17-68-20-113-4z" fill="#2a1d18"/>
    <path d="M291 190c19 22 50 25 80 0-2 33-16 57-39 69-25-13-39-36-41-69z" fill="#f0c49a"/>

    <path d="M235 264c27-33 61-49 98-49 43 0 77 18 102 55-12 42-28 76-48 103l24 206c-65 39-134 39-204 0l33-203c-19-33-21-71-5-112z" fill="url(#cloak)"/>
    <path d="M252 278c49 24 99 24 151 0 22 74 22 155 2 241-55 27-111 28-168 3-18-84-12-165 15-244z" fill="#182230" opacity="0.92"/>
    <path d="M267 272c37 34 77 35 120 0l-19 107-41 35-42-35-18-107z" fill="url(#steel)"/>
    <path d="M281 279l47 48 46-48-15 74-31 34-31-34-16-74z" fill="#121820"/>
    <path d="M316 245h31l18 40-36 46-33-46 20-40z" fill="url(#gold)"/>

    <path d="M189 312c34-34 62-49 82-43l-27 99-75 69c-20-17-29-38-27-62 6-26 22-47 47-63z" fill="#1b2636"/>
    <path d="M444 315c-30-38-58-55-84-51l29 104 77 70c20-17 28-39 25-64-6-24-22-44-47-59z" fill="#1a2536"/>
    <path d="M169 438l72-73 28 33-68 81c-21-3-32-16-32-41z" fill="url(#steel)"/>
    <path d="M463 440l-74-75-27 34 69 80c21-3 32-16 32-39z" fill="url(#steel)"/>

    <path d="M323 200c16 0 29 7 37 21-13 10-26 16-39 16s-26-5-38-16c9-14 22-21 40-21z" fill="#11151b" opacity="0.34"/>
    <path d="M290 172c17-8 33-10 48-7 19 4 36 11 52 21-3-22-12-45-28-69-58-22-93-4-105 54 10-5 21-4 33 1z" fill="#20120e"/>

    <path d="M332 327c22 83 19 160-7 231" stroke="#e2b95f" stroke-width="3" stroke-opacity="0.34"/>
    <path d="M221 589c73 37 147 38 222 0l18 64c-92 39-178 40-257 1l17-65z" fill="#08090b"/>
    <path d="M250 520c18 14 43 23 75 25 33 1 61-7 85-25" fill="none" stroke="#ffe8a3" stroke-width="5" stroke-linecap="round" opacity="0.36"/>

    <path d="M490 119L344 463" stroke="url(#gold)" stroke-width="13" stroke-linecap="round"/>
    <path d="M495 104L470 156l31 14 27-55-33-11z" fill="url(#steel)"/>
    <path d="M350 449l-33 61" stroke="#fff3b5" stroke-width="5" stroke-linecap="round" opacity="0.66"/>
  </g>

  <g filter="url(#glow)" opacity="0.88">
    <circle cx="208" cy="204" r="7" fill="#9bf6ff"/>
    <circle cx="438" cy="214" r="6" fill="#ffe8a3"/>
    <circle cx="166" cy="501" r="5" fill="#9d78d9"/>
    <circle cx="500" cy="493" r="5" fill="#5ba8ff"/>
    <path d="M180 238c80-62 193-68 284-14" fill="none" stroke="#ffe8a3" stroke-width="2" stroke-opacity="0.24"/>
    <path d="M154 594c112 48 226 48 341 0" fill="none" stroke="#9bf6ff" stroke-width="2" stroke-opacity="0.22"/>
  </g>
</svg>
