<svg xmlns="http://www.w3.org/2000/svg" viewBox="0 0 720 980" role="img" aria-label="Soul Online anime hero">
  <defs>
    <linearGradient id="hair" x1="0" x2="1" y1="0" y2="1"><stop stop-color="#241533"/><stop offset=".45" stop-color="#47316c"/><stop offset="1" stop-color="#9bdcff"/></linearGradient>
    <linearGradient id="armor" x1="0" x2="1" y1="0" y2="1"><stop stop-color="#fff1b5"/><stop offset=".5" stop-color="#d7a853"/><stop offset="1" stop-color="#513620"/></linearGradient>
    <linearGradient id="cloth" x1="0" x2="1"><stop stop-color="#32204e"/><stop offset="1" stop-color="#0b132b"/></linearGradient>
    <radialGradient id="aura" cx="50%" cy="45%" r="55%"><stop stop-color="#9bf2ff" stop-opacity=".78"/><stop offset=".48" stop-color="#7d5cff" stop-opacity=".24"/><stop offset="1" stop-color="#000" stop-opacity="0"/></radialGradient>
    <filter id="glow"><feGaussianBlur stdDeviation="7" result="b"/><feMerge><feMergeNode in="b"/><feMergeNode in="SourceGraphic"/></feMerge></filter>
  </defs>
  <ellipse cx="360" cy="470" rx="310" ry="410" fill="url(#aura)" opacity=".85"/>
  <g opacity=".78" filter="url(#glow)">
    <circle cx="360" cy="465" r="256" fill="none" stroke="#8ff3ff" stroke-width="8" stroke-dasharray="22 18"/>
    <circle cx="360" cy="465" r="196" fill="none" stroke="#ffd77a" stroke-width="4" stroke-dasharray="10 24"/>
  </g>
  <g transform="translate(0 10)">
    <path d="M235 272c24-102 94-146 161-127 63 18 99 76 87 160 59 35 86 101 66 166-20 67-71 92-111 97-78 10-170-14-221-62-44-42-51-108-26-162 9-20 25-40 44-72z" fill="url(#hair)"/>
    <path d="M277 244c34-72 110-101 168-57 38 28 49 78 36 125-40-38-95-50-165-22-22 9-50 22-80 22 12-27 24-49 41-68z" fill="#7fdfff" opacity=".33"/>
    <path d="M249 346c-16-2-30 10-28 31 2 22 23 42 42 36 8 33 28 64 62 80 24 12 58 13 84 1 36-17 58-50 66-88 16 3 36-16 38-38 2-18-10-28-24-25 2-68-38-119-113-121-79-2-127 49-127 124z" fill="#ffd7ba"/>
    <path d="M295 375c16-12 35-10 51 0M395 376c17-13 38-13 54-1" fill="none" stroke="#342044" stroke-width="10" stroke-linecap="round"/>
    <path d="M355 405c-3 17-9 25-18 36 15 10 35 9 50-2" fill="none" stroke="#b06461" stroke-width="6" stroke-linecap="round"/>
    <path d="M314 458c31 23 73 22 104-1" fill="none" stroke="#ba4f68" stroke-width="8" stroke-linecap="round"/>
    <path d="M262 505c55 56 151 58 207 1l55 77-31 242H225l-31-242 68-78z" fill="url(#cloth)"/>
    <path d="M287 526c41 32 101 35 147 0l38 70c-63 38-141 36-218-2l33-68z" fill="#f8d170" opacity=".92"/>
    <path d="M210 600c-45 48-70 120-82 213h147l-2-193-63-20zM511 600c45 49 70 121 82 213H446l2-193 63-20z" fill="#1c2348"/>
    <path d="M192 583c55 44 110 70 168 73 63 3 121-22 171-73l30 98c-129 95-263 94-399 1l30-99z" fill="url(#armor)"/>
    <path d="M352 640l-36 182h88l-38-182h-14z" fill="#79ecff" opacity=".72" filter="url(#glow)"/>
    <path d="M126 822h468v62c-106 42-358 43-468 0v-62z" fill="#070a19" opacity=".72"/>
    <g filter="url(#glow)">
      <path d="M508 260l85-92 15 122 96 58-121 15-57 99-19-122-99-60z" fill="#9df7ff" opacity=".68"/>
      <path d="M149 310l64-69 10 91 72 43-91 12-43 74-14-91-73-45z" fill="#ffd777" opacity=".58"/>
    </g>
  </g>
</svg>
