<svg xmlns="http://www.w3.org/2000/svg" viewBox="0 0 820 920">
  <defs>
    <radialGradient id="halo" cx="50%" cy="30%" r="62%"><stop offset="0" stop-color="#fff8d6"/><stop offset=".34" stop-color="#72e7ff" stop-opacity=".7"/><stop offset="1" stop-color="#0b0f16" stop-opacity="0"/></radialGradient>
    <linearGradient id="hair" x1="0" y1="0" x2="1" y2="1"><stop stop-color="#fff3b5"/><stop offset=".35" stop-color="#efb15f"/><stop offset="1" stop-color="#5b2b52"/></linearGradient>
    <linearGradient id="armor" x1="0" y1="0" x2="0" y2="1"><stop stop-color="#f8f1d1"/><stop offset=".26" stop-color="#e2b95f"/><stop offset=".68" stop-color="#25304a"/><stop offset="1" stop-color="#10131b"/></linearGradient>
    <linearGradient id="cape" x1="0" y1="0" x2="1" y2="1"><stop stop-color="#7232d8"/><stop offset="1" stop-color="#10131b"/></linearGradient>
    <filter id="glow"><feGaussianBlur stdDeviation="10" result="b"/><feMerge><feMergeNode in="b"/><feMergeNode in="SourceGraphic"/></feMerge></filter>
  </defs>
  <ellipse cx="410" cy="310" rx="310" ry="300" fill="url(#halo)" opacity=".8"/>
  <g filter="url(#glow)" opacity=".82"><circle cx="410" cy="430" r="235" fill="none" stroke="#e2b95f" stroke-width="5" stroke-dasharray="34 18"/><circle cx="410" cy="430" r="178" fill="none" stroke="#72e7ff" stroke-width="3" stroke-dasharray="12 18"/></g>
  <path d="M174 788 C250 640 250 488 334 408 L486 408 C570 488 570 640 646 788 C520 850 300 850 174 788Z" fill="url(#cape)" opacity=".96"/>
  <path d="M290 812 C314 628 340 505 360 410 L460 410 C482 510 510 630 532 812 C460 858 360 858 290 812Z" fill="url(#armor)"/>
  <path d="M326 478 L494 478 L470 616 L350 616Z" fill="#111822" opacity=".9"/>
  <path d="M350 505 L470 505 M340 550 L480 550 M358 602 L462 602" stroke="#e2b95f" stroke-width="8" opacity=".72"/>
  <path d="M330 280 C320 196 376 142 430 148 C508 156 548 232 522 316 C594 304 628 356 612 414 C590 494 468 470 410 428 C350 474 236 488 210 412 C190 352 244 306 330 280Z" fill="url(#hair)"/>
  <ellipse cx="410" cy="330" rx="92" ry="112" fill="#ffd6b0"/>
  <path d="M320 314 C354 246 434 244 512 306 C496 226 452 178 390 184 C336 190 296 232 320 314Z" fill="url(#hair)"/>
  <path d="M358 340 C374 330 390 330 404 340 M434 340 C450 330 468 330 482 340" stroke="#1d2130" stroke-width="9" stroke-linecap="round"/>
  <path d="M384 390 C404 405 428 405 448 390" fill="none" stroke="#923c5d" stroke-width="8" stroke-linecap="round"/>
  <path d="M282 690 L182 836" stroke="#f8f1d1" stroke-width="20" stroke-linecap="round"/><path d="M538 690 L638 836" stroke="#f8f1d1" stroke-width="20" stroke-linecap="round"/>
  <path d="M188 838 L632 838" stroke="#72e7ff" stroke-width="16" stroke-linecap="round" opacity=".88"/>
  <path d="M220 834 L600 834" stroke="#fff8d6" stroke-width="5" stroke-linecap="round"/>
  <g opacity=".95"><circle cx="248" cy="202" r="14" fill="#72e7ff"/><circle cx="586" cy="246" r="18" fill="#e2b95f"/><circle cx="164" cy="510" r="10" fill="#ff8dd6"/><circle cx="662" cy="548" r="12" fill="#72e7ff"/></g>
</svg>
