<svg xmlns="http://www.w3.org/2000/svg" viewBox="0 0 720 880">
  <defs>
    <linearGradient id="hair" x1="0" x2="1"><stop stop-color="#f8e1a1"/><stop offset="1" stop-color="#e8746e"/></linearGradient>
    <linearGradient id="armor" x1="0" x2="1" y1="0" y2="1"><stop stop-color="#f8f4d4"/><stop offset=".42" stop-color="#72e7ff"/><stop offset="1" stop-color="#171a35"/></linearGradient>
    <radialGradient id="glow" cx="50%" cy="42%" r="55%"><stop stop-color="#fff6cb" stop-opacity=".75"/><stop offset=".45" stop-color="#72e7ff" stop-opacity=".22"/><stop offset="1" stop-color="#000" stop-opacity="0"/></radialGradient>
    <filter id="soft"><feGaussianBlur stdDeviation="9"/></filter>
  </defs>
  <ellipse cx="360" cy="395" rx="300" ry="330" fill="url(#glow)"/>
  <g opacity=".55" filter="url(#soft)"><path d="M160 758 C250 640 457 650 562 764" fill="#72e7ff" opacity=".24"/><path d="M204 300 C300 170 444 170 516 318" fill="#e2b95f" opacity=".18"/></g>
  <g transform="translate(360 455)">
    <path d="M-168 260 C-148 116 -91 31 -38 -18 C-11 -43 22 -46 51 -18 C109 36 155 130 175 260 Z" fill="#101528" stroke="#ffe6a4" stroke-opacity=".5" stroke-width="5"/>
    <path d="M-116 240 C-74 136 -42 82 0 56 C48 84 83 142 119 240 Z" fill="url(#armor)" stroke="#fff1b5" stroke-opacity=".42" stroke-width="4"/>
    <path d="M-72 35 C-43 11 42 10 72 35 C60 97 28 128 1 128 C-26 128 -58 98 -72 35Z" fill="#ffe0c5"/>
    <path d="M-96 19 C-74 -100 91 -108 112 13 C76 -13 44 -22 2 -20 C-37 -21 -71 -10 -96 19Z" fill="url(#hair)" stroke="#fff1be" stroke-opacity=".38" stroke-width="4"/>
    <path d="M-88 20 C-112 96 -110 186 -68 250 C-44 182 -26 93 -42 16Z" fill="#df6f78" opacity=".95"/>
    <path d="M90 19 C120 105 112 190 72 250 C48 176 32 92 48 15Z" fill="#f0b178" opacity=".92"/>
    <ellipse cx="-28" cy="49" rx="10" ry="14" fill="#18324e"/><ellipse cx="34" cy="49" rx="10" ry="14" fill="#18324e"/><path d="M-25 93 C-5 105 19 105 40 91" stroke="#ba5a5a" stroke-width="5" fill="none" stroke-linecap="round"/>
    <path d="M-210 258 L-38 -104" stroke="#fff2b3" stroke-width="16" stroke-linecap="round"/><path d="M-227 286 L-42 -94" stroke="#72e7ff" stroke-opacity=".45" stroke-width="6" stroke-linecap="round"/>
    <path d="M144 90 C220 150 250 222 244 298" stroke="#9c80ff" stroke-width="20" stroke-linecap="round" fill="none" opacity=".8"/>
    <circle cx="-210" cy="258" r="22" fill="#ffe288"/><circle cx="244" cy="298" r="18" fill="#72e7ff"/>
  </g>
  <g opacity=".8"><circle cx="194" cy="218" r="5" fill="#fff2b3"/><circle cx="520" cy="280" r="4" fill="#72e7ff"/><circle cx="565" cy="470" r="6" fill="#fff2b3"/><circle cx="154" cy="515" r="4" fill="#9c80ff"/></g>
</svg>