<svg xmlns="http://www.w3.org/2000/svg" width="900" height="1100" viewBox="0 0 900 1100">
<defs><radialGradient id="aura" cx="50%" cy="45%" r="54%"><stop offset="0" stop-color="#fff2b8" stop-opacity=".85"/><stop offset=".36" stop-color="#71e9ff" stop-opacity=".45"/><stop offset=".74" stop-color="#8e5cff" stop-opacity=".18"/><stop offset="1" stop-color="#08050d" stop-opacity="0"/></radialGradient><linearGradient id="hair" x1="0" x2="1"><stop stop-color="#17101f"/><stop offset=".52" stop-color="#3e2a6f"/><stop offset="1" stop-color="#b983ff"/></linearGradient><linearGradient id="armor" x1=".18" y1=".05" x2=".9" y2=".95"><stop stop-color="#fff1b8"/><stop offset=".18" stop-color="#e2b95f"/><stop offset=".53" stop-color="#253045"/><stop offset="1" stop-color="#080b12"/></linearGradient><linearGradient id="blade" x1="0" y1="0" x2="1" y2="1"><stop stop-color="#ffffff"/><stop offset=".36" stop-color="#8ff6ff"/><stop offset="1" stop-color="#755cff"/></linearGradient><filter id="glow" x="-30%" y="-30%" width="160%" height="160%"><feGaussianBlur stdDeviation="12" result="b"/><feMerge><feMergeNode in="b"/><feMergeNode in="SourceGraphic"/></feMerge></filter></defs>
<rect width="900" height="1100" fill="none"/><ellipse cx="455" cy="540" rx="355" ry="455" fill="url(#aura)" filter="url(#glow)"/>
<g opacity=".46" filter="url(#glow)"><circle cx="450" cy="520" r="330" fill="none" stroke="#e2b95f" stroke-width="8" stroke-dasharray="24 24"/><circle cx="450" cy="520" r="250" fill="none" stroke="#72e7ff" stroke-width="4" stroke-dasharray="10 18"/></g>
<g transform="translate(110 76)">
<path d="M318 244c-54 27-105 84-117 169-12 88 9 214 66 278 43 48 97 72 154 72 60 0 128-29 170-89 55-78 62-226 20-310-42-84-121-147-293-120z" fill="#1e1b2f" opacity=".72"/>
<path d="M296 236c-88 52-116 176-84 296 18 69 4 126-37 180 89-18 141-66 162-143 24-90 26-197-41-333z" fill="url(#hair)" opacity=".95"/>
<path d="M444 205c119 38 179 145 176 272-2 94 33 161 92 200-93 4-173-39-207-118-42-96-40-239-61-354z" fill="url(#hair)" opacity=".94"/>
<path d="M324 270c39-42 151-48 198 0 41 42 48 134 22 193-22 50-66 89-121 89-59 0-103-42-125-93-24-56-15-145 26-189z" fill="#f5cfa2"/>
<path d="M316 374c29-18 63-18 95-5M450 369c31-17 70-15 101 5" stroke="#4d2c33" stroke-width="8" stroke-linecap="round" opacity=".6"/>
<path d="M368 418c18 10 39 10 57 0M468 418c19 10 42 10 61-1" stroke="#101827" stroke-width="10" stroke-linecap="round"/>
<path d="M427 466c12 8 31 8 43 0M388 503c37 25 88 25 126-1" stroke="#7b3e4d" stroke-width="7" stroke-linecap="round" fill="none"/>
<path d="M256 612c39-67 89-101 164-104 89-4 161 31 209 103l72 269H193z" fill="url(#armor)" stroke="#f4d27d" stroke-width="9"/>
<path d="M236 686c72 55 151 84 241 82 75-2 144-27 205-74l24 112c-79 69-177 97-295 83-85-10-153-40-203-89z" fill="#0b1018" opacity=".66"/>
<path d="M421 528l-42 155 45 56 50-57-31-154z" fill="#72e7ff" opacity=".7" filter="url(#glow)"/>
<path d="M658 256L410 848l-44-14L608 237z" fill="url(#blade)" stroke="#f9f5d7" stroke-width="7" filter="url(#glow)"/>
<path d="M220 778c143 64 296 66 448 0" fill="none" stroke="#e2b95f" stroke-width="7" opacity=".55"/>
</g>
<g filter="url(#glow)"><path d="M88 882c176 76 563 75 724-7" fill="none" stroke="#72e7ff" stroke-width="6" opacity=".3"/><circle cx="118" cy="862" r="7" fill="#ffe7aa"/><circle cx="779" cy="853" r="10" fill="#72e7ff"/><circle cx="709" cy="909" r="5" fill="#b794ff"/></g>
</svg>