<svg xmlns="http://www.w3.org/2000/svg" viewBox="0 0 760 980">
<defs>
<radialGradient id="aura" cx="50%" cy="44%" r="58%"><stop offset="0" stop-color="#fff4c7" stop-opacity=".66"/><stop offset=".38" stop-color="#75e8ff" stop-opacity=".24"/><stop offset="1" stop-color="#0b1028" stop-opacity="0"/></radialGradient>
<linearGradient id="hair" x1="0" y1="0" x2="1" y2="1"><stop offset="0" stop-color="#fff0b0"/><stop offset=".45" stop-color="#e2b95f"/><stop offset="1" stop-color="#5b2b4e"/></linearGradient>
<linearGradient id="armor" x1="0" y1="0" x2="0" y2="1"><stop offset="0" stop-color="#f7e4a2"/><stop offset=".32" stop-color="#263c72"/><stop offset="1" stop-color="#111827"/></linearGradient>
<linearGradient id="blade" x1="0" y1="0" x2="0" y2="1"><stop offset="0" stop-color="#ffffff"/><stop offset=".36" stop-color="#90f4ff"/><stop offset="1" stop-color="#3b5fb8"/></linearGradient>
</defs>
<rect width="760" height="980" fill="none"/>
<ellipse cx="382" cy="516" rx="318" ry="376" fill="url(#aura)"/>
<path d="M380 62 C510 80 590 183 604 322 C620 470 562 640 476 768 C428 840 336 836 288 762 C208 640 154 464 174 308 C192 168 264 78 380 62Z" fill="#10182d" opacity=".88"/>
<path d="M245 250 C250 118 495 108 535 255 C568 378 522 487 468 562 C424 516 334 514 290 560 C238 476 218 370 245 250Z" fill="url(#hair)"/>
<path d="M302 184 C332 112 454 112 492 190 C448 168 356 168 302 184Z" fill="#fff5ca" opacity=".42"/>
<ellipse cx="380" cy="346" rx="92" ry="116" fill="#ffd8bd"/>
<path d="M300 344 C334 398 429 405 466 344 C444 455 320 456 300 344Z" fill="#d8957d" opacity=".24"/>
<path d="M334 322 C350 311 368 312 382 326 M418 326 C434 312 452 312 468 322" stroke="#20243b" stroke-width="7" stroke-linecap="round" fill="none"/>
<path d="M354 390 C374 406 408 406 428 390" stroke="#9d5065" stroke-width="7" stroke-linecap="round" fill="none"/>
<path d="M228 584 C250 488 304 455 380 455 C456 455 512 489 534 584 L580 904 L180 904Z" fill="url(#armor)"/>
<path d="M274 570 L380 510 L486 570 L442 650 L380 690 L316 650Z" fill="#182343" stroke="#f1c96c" stroke-width="8"/>
<path d="M380 512 L380 690" stroke="#76e7ff" stroke-width="6" opacity=".72"/>
<circle cx="380" cy="610" r="32" fill="#74e9ff" opacity=".8"/><circle cx="380" cy="610" r="16" fill="#fff7c8" opacity=".95"/>
<path d="M576 132 L612 172 L410 784 L374 756Z" fill="url(#blade)" opacity=".92"/>
<path d="M604 162 L628 191 L438 800" stroke="#ffffff" stroke-width="8" opacity=".48"/>
<path d="M176 720 C260 690 502 696 586 720" stroke="#e2b95f" stroke-width="12" opacity=".68" fill="none"/>
<g opacity=".72">
<circle cx="172" cy="258" r="9" fill="#fff0a8"/><circle cx="612" cy="342" r="7" fill="#7af3ff"/><circle cx="198" cy="514" r="6" fill="#d7bdff"/><circle cx="562" cy="582" r="8" fill="#fff0a8"/>
</g>
</svg>