<svg xmlns="http://www.w3.org/2000/svg" viewBox="0 0 820 940">
<defs>
  <radialGradient id="halo" cx="50%" cy="34%" r="54%"><stop offset="0" stop-color="#fff0ae" stop-opacity=".95"/><stop offset=".35" stop-color="#a6f2ff" stop-opacity=".45"/><stop offset="1" stop-color="#12091e" stop-opacity="0"/></radialGradient>
  <linearGradient id="hair" x1="0" y1="0" x2="1" y2="1"><stop offset="0" stop-color="#201525"/><stop offset=".45" stop-color="#5b315e"/><stop offset="1" stop-color="#0d0b13"/></linearGradient>
  <linearGradient id="armor" x1="0" y1="0" x2="1" y2="1"><stop offset="0" stop-color="#fff0be"/><stop offset=".42" stop-color="#7acfff"/><stop offset="1" stop-color="#1b234d"/></linearGradient>
  <linearGradient id="cloth" x1="0" y1="0" x2="1" y2="1"><stop offset="0" stop-color="#ff6ea9"/><stop offset=".44" stop-color="#7c5cff"/><stop offset="1" stop-color="#141029"/></linearGradient>
  <filter id="glow"><feGaussianBlur stdDeviation="5" result="b"/><feMerge><feMergeNode in="b"/><feMergeNode in="SourceGraphic"/></feMerge></filter>
</defs>
<rect width="820" height="940" fill="none"/>
<ellipse cx="415" cy="850" rx="210" ry="42" fill="#000" opacity=".35"/>
<circle cx="410" cy="322" r="322" fill="url(#halo)"/>
<g filter="url(#glow)" opacity=".72">
  <path d="M128 242 C262 108 526 98 676 250" fill="none" stroke="#8ff4ff" stroke-width="5" stroke-linecap="round" opacity=".45"/>
  <path d="M154 646 C260 742 548 742 676 616" fill="none" stroke="#ffe684" stroke-width="5" stroke-linecap="round" opacity=".32"/>
  <path d="M224 198 L246 238 L290 246 L256 274 L262 318 L224 298 L186 318 L192 274 L158 246 L202 238Z" fill="#ffec9c" opacity=".55"/>
  <path d="M640 334 L658 366 L696 372 L668 398 L674 436 L640 418 L606 436 L612 398 L584 372 L622 366Z" fill="#8ff4ff" opacity=".48"/>
</g>
<path d="M250 488 C208 338 260 178 406 124 C560 170 606 330 570 488 C530 410 302 408 250 488Z" fill="url(#hair)"/>
<path d="M274 340 C278 230 338 146 410 142 C492 150 552 236 542 348 C520 454 302 452 274 340Z" fill="#f2c49c"/>
<path d="M270 312 C312 208 398 166 528 252 C490 206 416 194 340 222 C304 236 282 270 270 312Z" fill="url(#hair)"/>
<path d="M318 330 C338 348 358 350 382 334" fill="none" stroke="#241526" stroke-width="8" stroke-linecap="round"/>
<path d="M442 334 C468 350 494 348 516 326" fill="none" stroke="#241526" stroke-width="8" stroke-linecap="round"/>
<path d="M388 384 C408 398 432 398 452 384" fill="none" stroke="#a85163" stroke-width="7" stroke-linecap="round"/>
<path d="M222 804 C240 650 244 522 304 446 C350 492 470 492 520 446 C584 526 596 650 612 804 Z" fill="url(#cloth)" stroke="#fff0be" stroke-width="6"/>
<path d="M302 456 C342 514 486 516 526 456 C504 590 330 590 302 456Z" fill="url(#armor)" opacity=".94"/>
<path d="M254 524 L132 760 L244 816 L328 532 Z" fill="#6c5cff" opacity=".82"/>
<path d="M566 524 L688 760 L576 816 L492 532 Z" fill="#2ad8ff" opacity=".78"/>
<path d="M334 552 L410 826 L492 552" fill="none" stroke="#ffefaa" stroke-width="16" stroke-linecap="round" opacity=".55"/>
<path d="M156 244 L118 818" stroke="#f7dc7a" stroke-width="16" stroke-linecap="round"/>
<path d="M126 256 L196 226 L190 286 Z" fill="#fff2a8"/>
<path d="M654 176 C690 224 698 296 664 350 C640 306 618 254 654 176Z" fill="#ff73b7" opacity=".72"/>
<g opacity=".85" filter="url(#glow)"><circle cx="410" cy="104" r="22" fill="#fff4ae"/><circle cx="160" cy="412" r="12" fill="#8ef4ff"/><circle cx="668" cy="520" r="14" fill="#ff8bc8"/><circle cx="334" cy="782" r="10" fill="#fff4ae"/></g>
</svg>