<svg xmlns="http://www.w3.org/2000/svg" viewBox="0 0 620 880">
  <defs>
    <radialGradient id="a" cx="50%" cy="32%" r="58%"><stop offset="0" stop-color="#fff7cf"/><stop offset="0.34" stop-color="#ffd66b"/><stop offset="1" stop-color="#4c1d7a" stop-opacity="0"/></radialGradient>
    <linearGradient id="b" x1="0" x2="1" y1="0" y2="1"><stop stop-color="#fff7d8"/><stop offset="0.35" stop-color="#8ceeff"/><stop offset="0.7" stop-color="#e2b95f"/><stop offset="1" stop-color="#2b103d"/></linearGradient>
    <linearGradient id="c" x1="0" x2="0" y1="0" y2="1"><stop stop-color="#fff7e2"/><stop offset="0.45" stop-color="#d7e6ff"/><stop offset="1" stop-color="#2a2e54"/></linearGradient>
    <filter id="glow"><feGaussianBlur stdDeviation="8" result="x"/><feMerge><feMergeNode in="x"/><feMergeNode in="SourceGraphic"/></feMerge></filter>
  </defs>
  <ellipse cx="310" cy="800" rx="230" ry="42" fill="#000" opacity=".42"/>
  <circle cx="310" cy="310" r="290" fill="url(#a)" opacity=".8"/>
  <g filter="url(#glow)" opacity=".72">
    <path d="M105 386c74-136 344-150 430-6" fill="none" stroke="#8ceeff" stroke-width="12" opacity=".38"/>
    <path d="M115 419c95 116 292 116 397 0" fill="none" stroke="#ffd66b" stroke-width="9" opacity=".3"/>
  </g>
  <g transform="translate(310 424)">
    <path d="M-122 255c14-116 34-206 66-273 26-56 76-92 130-65 66 34 92 149 116 338z" fill="url(#c)" stroke="#f6e7b6" stroke-width="5"/>
    <path d="M-90 98c-54 28-92 78-126 134l36 31c35-34 73-63 110-82z" fill="#17264f" stroke="#8ceeff" stroke-width="4"/>
    <path d="M92 86c62 19 111 62 149 119l-31 37c-45-35-88-58-132-71z" fill="#2c1a50" stroke="#ffd66b" stroke-width="4"/>
    <path d="M-62-42c9-81 47-133 106-133 63 0 108 54 113 137 3 55-21 104-64 129-45 25-99 18-129-22-18-24-29-63-26-111z" fill="#f1d3ba" stroke="#3c2233" stroke-width="5"/>
    <path d="M-64-39c-25-38-8-123 54-155 45-23 93-11 121 22 48 14 70 56 64 112-31-38-73-52-126-45-44 6-77 25-113 66z" fill="#1b183b"/>
    <path d="M-76-12c48-38 103-51 174-32 14 34 10 75-12 105-28 39-91 42-129 6-21-20-32-48-33-79z" fill="#f4d5be"/>
    <path d="M-35 6c17-10 34-11 52-2M56 1c16-9 30-7 44 3" stroke="#201525" stroke-width="7" stroke-linecap="round"/>
    <path d="M17 49c23 12 44 9 61-8" stroke="#9e4e5d" stroke-width="5" stroke-linecap="round" fill="none"/>
    <path d="M-42 104c48 32 105 34 157 4l-12 88H-62z" fill="#fff0c4"/>
    <path d="M-154 245l107-276 49 17-90 288z" fill="url(#b)" stroke="#fff3bd" stroke-width="5"/>
    <path d="M-183 255l92-34 39 48-96 31z" fill="#e2b95f"/>
    <path d="M126-14l50 17 82 262-73 26z" fill="#1f345c" stroke="#8ceeff" stroke-width="4"/>
    <path d="M-92 210h234l43 115H-137z" fill="#11172c" opacity=".86"/>
    <circle cx="11" cy="144" r="38" fill="#8ceeff" opacity=".78"/><circle cx="11" cy="144" r="18" fill="#fff"/>
    <path d="M-17 143h56M11 115v56" stroke="#1d2d52" stroke-width="7" stroke-linecap="round"/>
  </g>
</svg>
