<svg xmlns="http://www.w3.org/2000/svg" viewBox="0 0 1600 720">
<defs><linearGradient id="sky" x1="0" y1="0" x2="0" y2="1"><stop offset="0" stop-color="#223260"/><stop offset=".42" stop-color="#352346"/><stop offset="1" stop-color="#111827"/></linearGradient><linearGradient id="river" x1="0" y1="0" x2="1" y2="0"><stop offset="0" stop-color="#2a6f8f"/><stop offset=".5" stop-color="#9befff"/><stop offset="1" stop-color="#2d4f8c"/></linearGradient></defs>
<rect width="1600" height="720" fill="url(#sky)"/><circle cx="1260" cy="116" r="88" fill="#fff3bf" opacity=".5"/><path d="M0 420 C190 330 330 380 520 310 C700 238 800 310 940 250 C1120 174 1310 300 1600 196 L1600 720 L0 720Z" fill="#0d1626" opacity=".86"/>
<path d="M0 560 C270 520 470 572 740 526 C1040 474 1220 572 1600 510 L1600 720 L0 720Z" fill="#17291f"/>
<path d="M0 620 C240 590 470 634 760 590 C1060 540 1260 620 1600 566 L1600 720 L0 720Z" fill="#1b3126"/>
<path d="M0 644 C360 598 550 654 820 606 C1050 566 1270 638 1600 588" stroke="url(#river)" stroke-width="52" opacity=".38" fill="none"/><path d="M0 642 C360 598 550 654 820 606 C1050 566 1270 638 1600 588" stroke="#e2fbff" stroke-width="8" opacity=".22" fill="none"/>
<g opacity=".95">
<path d="M174 480 h176 v126 H174z" fill="#29314a"/><path d="M150 480 l112-96 l116 96z" fill="#7b3540"/><rect x="232" y="526" width="54" height="80" fill="#141827"/><circle cx="260" cy="448" r="10" fill="#ffd36b"/>
<path d="M430 450 h210 v154 H430z" fill="#24324f"/><path d="M402 450 l132-122 l136 122z" fill="#9c5d3d"/><rect x="500" y="520" width="68" height="84" fill="#121725"/><rect x="462" y="482" width="42" height="36" fill="#ffd36b" opacity=".55"/>
<path d="M740 430 h230 v178 H740z" fill="#293a55"/><path d="M706 430 l150-144 l154 144z" fill="#5b2b62"/><rect x="830" y="516" width="74" height="92" fill="#121827"/><circle cx="854" cy="388" r="16" fill="#7df4ff" opacity=".8"/>
<path d="M1062 470 h180 v138 h-180z" fill="#29314a"/><path d="M1034 470 l116-106 l120 106z" fill="#8a3f38"/><rect x="1130" y="534" width="54" height="74" fill="#101622"/>
<path d="M1320 410 h80 v198 h-80z" fill="#293a55"/><path d="M1290 410 l70-122 l72 122z" fill="#d19a4f"/><circle cx="1360" cy="370" r="14" fill="#fff0a8"/>
</g>
<g opacity=".65" stroke="#ffd36b" stroke-width="4"><path d="M130 548 v-50"/><path d="M372 580 v-58"/><path d="M1004 570 v-54"/><path d="M1464 554 v-62"/></g>
<g fill="#fff0a8" opacity=".65"><circle cx="130" cy="496" r="8"/><circle cx="372" cy="520" r="8"/><circle cx="1004" cy="514" r="8"/><circle cx="1464" cy="490" r="8"/></g>
<path d="M112 382 C260 342 446 356 626 334 C840 306 1110 318 1494 260" stroke="#fff0a8" stroke-width="2" opacity=".18" stroke-dasharray="20 16" fill="none"/>
</svg>