<svg xmlns="http://www.w3.org/2000/svg" viewBox="0 0 1600 720" preserveAspectRatio="xMidYMid slice">
  <defs>
    <linearGradient id="sky" x1="0" y1="0" x2="0" y2="1"><stop offset="0" stop-color="#243c72"/><stop offset=".45" stop-color="#6e4f78"/><stop offset="1" stop-color="#1a2633"/></linearGradient>
    <linearGradient id="roof" x1="0" x2="1"><stop offset="0" stop-color="#9b392e"/><stop offset="1" stop-color="#db8c44"/></linearGradient>
    <radialGradient id="lamp"><stop offset="0" stop-color="#ffe7a4"/><stop offset=".5" stop-color="#e2b95f" stop-opacity=".45"/><stop offset="1" stop-color="#e2b95f" stop-opacity="0"/></radialGradient>
  </defs>
  <rect width="1600" height="720" fill="url(#sky)"/>
  <circle cx="1248" cy="112" r="66" fill="#ffe6a3" opacity=".9"/>
  <path d="M0 360 C160 258 280 306 430 228 C600 140 770 256 912 190 C1060 122 1240 200 1600 130 L1600 720 L0 720Z" fill="#172033" opacity=".76"/>
  <path d="M0 448 C230 385 415 438 650 386 C874 336 1040 398 1266 342 C1412 304 1510 330 1600 316 L1600 720 L0 720Z" fill="#22364c"/>
  <path d="M0 550 C260 498 445 563 660 510 C840 466 1010 548 1212 492 C1390 450 1508 500 1600 470 L1600 720 L0 720Z" fill="#2f493b"/>
  <g opacity=".95">
    <path d="M140 542 h188 v142 h-188z" fill="#2f2930"/><path d="M116 542 l118-98 l118 98z" fill="url(#roof)"/><rect x="184" y="594" width="38" height="70" fill="#101018"/><rect x="250" y="586" width="34" height="36" fill="#ffd487" opacity=".88"/>
    <path d="M382 516 h226 v168 h-226z" fill="#2a2630"/><path d="M352 516 l142-116 l142 116z" fill="#b95235"/><rect x="470" y="578" width="46" height="88" fill="#11131d"/><rect x="412" y="556" width="42" height="38" fill="#ffe09b" opacity=".85"/><rect x="544" y="556" width="42" height="38" fill="#ffe09b" opacity=".85"/>
    <path d="M670 500 h170 v184 h-170z" fill="#332637"/><path d="M650 500 l105-88 l105 88z" fill="#76304a"/><rect x="735" y="564" width="38" height="86" fill="#101018"/>
    <path d="M930 508 h250 v176 h-250z" fill="#292734"/><path d="M900 508 l156-125 l156 125z" fill="#ce733e"/><rect x="1032" y="565" width="48" height="94" fill="#101018"/><rect x="960" y="552" width="40" height="42" fill="#ffe09b" opacity=".78"/><rect x="1104" y="552" width="40" height="42" fill="#ffe09b" opacity=".78"/>
    <path d="M1262 480 h118 v202 h-118z" fill="#242837"/><path d="M1240 480 l82-112 l82 112z" fill="#8f4534"/><rect x="1308" y="530" width="30" height="115" fill="#0e1017"/>
  </g>
  <path d="M0 640 C250 590 420 618 640 578 C880 530 1040 624 1320 560 C1440 532 1530 548 1600 532 L1600 720 L0 720Z" fill="#172216" opacity=".85"/>
  <path d="M620 720 C710 644 828 610 960 594 C820 670 774 704 742 720Z" fill="#273041" opacity=".78"/>
  <g opacity=".85"><circle cx="305" cy="570" r="58" fill="url(#lamp)"/><circle cx="880" cy="550" r="74" fill="url(#lamp)"/><circle cx="1188" cy="528" r="62" fill="url(#lamp)"/><circle cx="1390" cy="500" r="44" fill="url(#lamp)"/></g>
  <path d="M72 680 C268 642 516 686 720 646 C958 600 1120 690 1520 616" fill="none" stroke="#e2b95f" stroke-width="5" opacity=".18"/>
</svg>
