<svg xmlns="http://www.w3.org/2000/svg" viewBox="0 0 1600 720">
<defs>
  <linearGradient id="sky" x1="0" y1="0" x2="0" y2="1"><stop offset="0" stop-color="#314a76"/><stop offset=".55" stop-color="#7b5a7e"/><stop offset="1" stop-color="#24172b"/></linearGradient>
  <linearGradient id="roof" x1="0" x2="1"><stop offset="0" stop-color="#d86155"/><stop offset="1" stop-color="#5b2741"/></linearGradient>
  <linearGradient id="wall" x1="0" x2="1"><stop offset="0" stop-color="#f5d3a6"/><stop offset="1" stop-color="#8f704d"/></linearGradient>
</defs>
<rect width="1600" height="720" fill="url(#sky)"/>
<circle cx="1220" cy="112" r="64" fill="#ffefb3" opacity=".74"/>
<path d="M0 320 C180 250 310 270 470 220 C680 162 846 256 1022 208 C1226 154 1390 204 1600 138 L1600 720 L0 720Z" fill="#1a2534" opacity=".70"/>
<path d="M0 386 C236 322 406 350 596 306 C830 250 1034 336 1240 286 C1390 250 1494 292 1600 250 L1600 720 L0 720Z" fill="#263248" opacity=".72"/>
<rect x="0" y="510" width="1600" height="210" fill="#172019"/>
<path d="M0 558 C260 515 426 570 650 530 C850 494 990 560 1210 516 C1380 482 1486 520 1600 494 L1600 720 L0 720Z" fill="#29402d"/>
<g opacity=".95">
  <g transform="translate(180 395)"><rect x="0" y="64" width="158" height="108" rx="10" fill="url(#wall)"/><path d="M-18 78 L80 0 L178 78Z" fill="url(#roof)"/><rect x="66" y="108" width="32" height="64" fill="#3d2a2a"/><rect x="24" y="98" width="28" height="28" fill="#ffd979" opacity=".75"/><rect x="112" y="98" width="28" height="28" fill="#ffd979" opacity=".75"/></g>
  <g transform="translate(380 354) scale(1.15)"><rect x="0" y="92" width="196" height="136" rx="12" fill="url(#wall)"/><path d="M-28 104 L96 0 L224 104Z" fill="#9e4b53"/><rect x="84" y="144" width="38" height="84" fill="#3c2a2e"/><circle cx="98" cy="70" r="24" fill="#ffd979" opacity=".8"/></g>
  <g transform="translate(660 392)"><rect x="0" y="70" width="172" height="118" rx="10" fill="url(#wall)"/><path d="M-22 78 L84 8 L196 78Z" fill="#d67947"/><rect x="72" y="126" width="34" height="62" fill="#2b2230"/></g>
  <g transform="translate(900 336)"><rect x="30" y="90" width="112" height="216" fill="#8f704d"/><path d="M0 110 L88 0 L176 110Z" fill="#754064"/><rect x="72" y="160" width="34" height="46" fill="#ffd979" opacity=".75"/><rect x="72" y="228" width="34" height="78" fill="#2b2230"/></g>
  <g transform="translate(1130 372) scale(1.05)"><rect x="0" y="84" width="210" height="132" rx="12" fill="url(#wall)"/><path d="M-30 96 L104 0 L240 96Z" fill="#bd5a50"/><rect x="88" y="150" width="42" height="66" fill="#2b2230"/><rect x="28" y="126" width="32" height="32" fill="#ffd979" opacity=".75"/><rect x="154" y="126" width="32" height="32" fill="#ffd979" opacity=".75"/></g>
</g>
<path d="M0 655 C300 600 530 648 790 608 C1020 572 1240 646 1600 584" fill="none" stroke="#77d8ff" stroke-width="46" opacity=".22"/>
<path d="M0 650 C300 600 530 648 790 608 C1020 572 1240 646 1600 584" fill="none" stroke="#b4f1ff" stroke-width="8" opacity=".18"/>
<g opacity=".55"><path d="M260 498 C420 456 474 532 642 488" fill="none" stroke="#ffdc86" stroke-width="4"/><path d="M820 476 C970 432 1030 514 1190 466" fill="none" stroke="#ffdc86" stroke-width="4"/></g>
</svg>