<svg xmlns="http://www.w3.org/2000/svg" width="1800" height="900" viewBox="0 0 1800 900">
<defs><linearGradient id="sky" x1="0" y1="0" x2="0" y2="1"><stop stop-color="#10162b"/><stop offset=".46" stop-color="#22355b"/><stop offset="1" stop-color="#172017"/></linearGradient><linearGradient id="river" x1="0" y1="0" x2="1" y2="0"><stop stop-color="#225573"/><stop offset=".52" stop-color="#73e7ff"/><stop offset="1" stop-color="#392c7c"/></linearGradient><filter id="glow"><feGaussianBlur stdDeviation="8" result="b"/><feMerge><feMergeNode in="b"/><feMergeNode in="SourceGraphic"/></feMerge></filter></defs>
<rect width="1800" height="900" fill="url(#sky)"/><circle cx="1340" cy="150" r="84" fill="#fff1bd" opacity=".56" filter="url(#glow)"/><path d="M0 360 C300 280 430 340 690 245 C980 140 1130 260 1380 210 C1580 172 1690 206 1800 166 L1800 900 L0 900Z" fill="#1a2730"/><path d="M0 456 C350 370 470 440 770 340 C1010 260 1210 392 1510 300 C1660 254 1740 282 1800 262 L1800 900 L0 900Z" fill="#24362f"/>
<path d="M0 690 C310 610 520 708 822 620 C1050 554 1300 686 1800 564 L1800 900 L0 900Z" fill="#1a291c"/>
<path d="M0 668 C322 590 530 690 835 607 C1072 542 1332 672 1800 550" stroke="url(#river)" stroke-width="58" fill="none" opacity=".55"/><path d="M0 668 C322 590 530 690 835 607 C1072 542 1332 672 1800 550" stroke="#ebffff" stroke-width="7" fill="none" opacity=".22"/>
<g fill="#2e241a" stroke="#e5b766" stroke-width="5" opacity=".98">
<path d="M170 560h150v130H170z"/><path d="M148 560l98-82 96 82z" fill="#674221"/><path d="M390 520h210v168H390z"/><path d="M356 520l140-116 142 116z" fill="#6d4828"/><path d="M700 545h165v146H700z"/><path d="M682 545l100-88 104 88z" fill="#70472a"/><path d="M1030 505h240v188h-240z"/><path d="M1000 505l152-128 154 128z" fill="#77522d"/><path d="M1360 560h190v132h-190z"/><path d="M1338 560l118-96 120 96z" fill="#693f24"/>
</g>
<g filter="url(#glow)"><circle cx="233" cy="610" r="9" fill="#ffd36b"/><circle cx="493" cy="592" r="10" fill="#ffd36b"/><circle cx="1160" cy="590" r="13" fill="#ffd36b"/><circle cx="1456" cy="615" r="10" fill="#ffd36b"/><path d="M560 714c190-92 442-102 672-14" stroke="#e2b95f" stroke-width="5" opacity=".22" fill="none"/><path d="M910 328c40 64 102 64 144 0" stroke="#72e7ff" stroke-width="10" opacity=".35" fill="none"/></g>
<g opacity=".5"><path d="M420 470c40-50 80-50 120 0" fill="none" stroke="#e2b95f" stroke-width="8"/><path d="M1110 454c62-58 124-58 188 0" fill="none" stroke="#e2b95f" stroke-width="8"/><path d="M780 490c40-50 86-50 128 0" fill="none" stroke="#72e7ff" stroke-width="7"/></g>
</svg>