<svg xmlns="http://www.w3.org/2000/svg" viewBox="0 0 96 48">
  <defs>
    <linearGradient id="top" x1="0" y1="0" x2="1" y2="1">
      <stop offset="0" stop-color="#6f925a"/>
      <stop offset=".45" stop-color="#486f48"/>
      <stop offset="1" stop-color="#2d5140"/>
    </linearGradient>
    <linearGradient id="sideA" x1="0" y1="0" x2="0" y2="1">
      <stop offset="0" stop-color="#28462f"/>
      <stop offset="1" stop-color="#17281e"/>
    </linearGradient>
  </defs>
  <path d="M48 2 94 24 48 46 2 24Z" fill="url(#top)" stroke="#23352b" stroke-width="1.2"/>
  <path d="M2 24 48 46 48 38 2 16Z" fill="url(#sideA)" opacity=".45"/>
  <path d="M94 24 48 46 48 38 94 16Z" fill="#1f3729" opacity=".42"/>
  <path d="M25 23c8-5 17-5 25 0M54 20c9-3 17-2 24 3M18 29c5 1 9 2 13 5" fill="none" stroke="#b3ce7c" stroke-width="1.4" opacity=".35"/>
  <path d="M44 15 52 19 43 23 36 19Z" fill="#82a45d" opacity=".22"/>
  <path d="M61 29 69 33 59 38 51 34Z" fill="#203d34" opacity=".22"/>
</svg>
