<svg xmlns="http://www.w3.org/2000/svg" viewBox="0 0 128 70">
  <defs>
    <linearGradient id="top" x1="0" y1="0" x2="1" y2="1"><stop offset="0" stop-color="#8fd891"/><stop offset=".36" stop-color="#3f8c6f"/><stop offset=".7" stop-color="#245d57"/><stop offset="1" stop-color="#183944"/></linearGradient>
    <filter id="glow"><feGaussianBlur stdDeviation="1.1"/></filter>
  </defs>
  <path d="M64 4 124 34 64 66 4 34Z" fill="url(#top)" stroke="#1f3b3a" stroke-width="1.7"/>
  <path d="M4 34 64 66 64 55 4 24Z" fill="#16372d" opacity=".76"/>
  <path d="M124 34 64 66 64 55 124 24Z" fill="#102b31" opacity=".72"/>
  <path d="M22 32c10-9 28-8 43-1s32 5 43-4" fill="none" stroke="#bbffc5" stroke-width="2.5" opacity=".32" stroke-linecap="round"/>
  <path d="M28 44c10 3 19 4 29 2M66 23c11-4 22-2 34 3" fill="none" stroke="#0e2727" stroke-width="2" opacity=".36" stroke-linecap="round"/>
  <path d="M36 25 49 17 63 24 50 34Z" fill="#bdffe3" opacity=".14"/>
  <path d="M76 38 90 31 105 39 91 48Z" fill="#62ecff" opacity=".13"/>
  <g opacity=".42" stroke="#d5fff4" stroke-width="1.3" stroke-linecap="round">
    <path d="M35 36v-7M38 37l6-5M74 46v-7M77 47l5-5M93 29v-6M96 30l5-4"/>
  </g>
  <ellipse cx="72" cy="35" rx="26" ry="9" fill="#6ffff4" opacity=".08" filter="url(#glow)"/>
</svg>
