<svg xmlns="http://www.w3.org/2000/svg" viewBox="0 0 128 70">
  <defs><linearGradient id="top" x1="0" y1="0" x2="1" y2="1"><stop offset="0" stop-color="#7bd6cf"/><stop offset=".42" stop-color="#2a86a0"/><stop offset="1" stop-color="#143353"/></linearGradient><filter id="glow"><feGaussianBlur stdDeviation="1.2"/></filter></defs>
  <path d="M64 4 124 34 64 66 4 34Z" fill="url(#top)" stroke="#102a42" stroke-width="1.7"/>
  <path d="M4 34 64 66 64 56 4 25Z" fill="#0a2a3c" opacity=".72"/>
  <path d="M124 34 64 66 64 56 124 25Z" fill="#072332" opacity=".68"/>
  <path d="M20 31c9-7 18 6 27 0s17-6 26 0 18 6 29-1M30 44c8-5 15 4 23 0s16-4 24 0" fill="none" stroke="#cafdf2" stroke-width="2.3" opacity=".68" stroke-linecap="round"/>
  <path d="M43 25c13-8 26-6 39 0" fill="none" stroke="#ffffff" stroke-width="3" opacity=".12" filter="url(#glow)"/>
  <ellipse cx="73" cy="36" rx="22" ry="9" fill="#b8fff4" opacity=".08"/>
</svg>
