<svg xmlns="http://www.w3.org/2000/svg" viewBox="0 0 128 70">
  <defs>
    <linearGradient id="top" x1="0" y1="0" x2="1" y2="1"><stop offset="0" stop-color="#8fdcff"/><stop offset=".34" stop-color="#6d64d9"/><stop offset=".68" stop-color="#38305e"/><stop offset="1" stop-color="#1b1832"/></linearGradient>
    <radialGradient id="shine" cx="52%" cy="42%" r="55%"><stop offset="0" stop-color="#ffffff" stop-opacity=".26"/><stop offset=".45" stop-color="#72e7ff" stop-opacity=".12"/><stop offset="1" stop-color="#000000" stop-opacity="0"/></radialGradient>
    <filter id="glow"><feGaussianBlur stdDeviation="1.6"/></filter>
  </defs>
  <path d="M64 4 124 34 64 66 4 34Z" fill="url(#top)" stroke="#171a35" stroke-width="1.7"/>
  <path d="M4 34 64 66 64 55 4 24Z" fill="#17132c" opacity=".78"/>
  <path d="M124 34 64 66 64 55 124 24Z" fill="#102a42" opacity=".14"/>
  <path d="M64 4 89 34 64 66 38 34Z" fill="url(#shine)"/>
  <path d="M28 35 44 23 61 32 47 45Z" fill="#bdf9ff" opacity=".16"/>
  <path d="M77 24 98 33 82 48 61 38Z" fill="#9777ff" opacity=".18"/>
  <path d="M26 41c12-4 22-4 34 2M57 24c15 6 28 6 42-1M72 49c11-7 24-7 34-2" fill="none" stroke="#b7f8ff" stroke-width="2" opacity=".36" stroke-linecap="round"/>
  <g stroke="#ffffff" stroke-width="1.2" opacity=".36">
    <path d="M44 23 48 45M61 32 48 45M77 24 82 48M98 33 82 48"/>
  </g>
  <ellipse cx="68" cy="36" rx="39" ry="16" fill="#72e7ff" opacity=".07" filter="url(#glow)"/>
</svg>
