<svg xmlns="http://www.w3.org/2000/svg" viewBox="0 0 128 78">
  <defs>
    <linearGradient id="top" x1="0" y1="0" x2="1" y2="1"><stop offset="0" stop-color="#777264"/><stop offset=".45" stop-color="#4d4f48"/><stop offset="1" stop-color="#242a2d"/></linearGradient>
    <linearGradient id="wall" x1="0" y1="0" x2="0" y2="1"><stop offset="0" stop-color="#2b3131"/><stop offset="1" stop-color="#101416"/></linearGradient>
  </defs>
  <path d="M64 4 124 34 64 64 4 34Z" fill="url(#top)" stroke="#171c1d" stroke-width="1.8"/>
  <path d="M4 34 64 64 124 34 124 43 64 76 4 43Z" fill="url(#wall)" opacity=".94"/>
  <path d="M15 39 64 65 113 39M32 48l8 13M52 56l5 14M78 56l-5 14M96 48l-8 13" fill="none" stroke="#6b6f67" stroke-width="1.6" opacity=".45" stroke-linecap="round"/>
  <path d="M22 32 38 25l19 8 17-8 32 11M38 43l22-9 25 9" fill="none" stroke="#b2a98c" stroke-width="1.6" opacity=".3" stroke-linecap="round"/>
  <path d="M42 24 60 17 76 25 59 33Z" fill="#d8caa1" opacity=".12"/>
</svg>
