<svg xmlns="http://www.w3.org/2000/svg" viewBox="0 0 190 150">
  <defs><linearGradient id="scale" x1="0" y1="0" x2="1" y2="1"><stop offset="0" stop-color="#a45b3a"/><stop offset=".45" stop-color="#59272b"/><stop offset="1" stop-color="#1a0e12"/></linearGradient><linearGradient id="gold" x1="0" y1="0" x2="1" y2="1"><stop offset="0" stop-color="#ffe99a"/><stop offset="1" stop-color="#8a4e18"/></linearGradient><filter id="glow"><feGaussianBlur stdDeviation="3" result="b"/><feMerge><feMergeNode in="b"/><feMergeNode in="SourceGraphic"/></feMerge></filter></defs>
  <ellipse cx="96" cy="132" rx="65" ry="16" fill="#000" opacity=".34"/>
  <path d="M41 79 8 34l58 22c17-26 69-28 91 2l40-20-27 48c6 40-32 61-80 52-39-7-66-31-49-59Z" fill="url(#scale)" stroke="#150d0e" stroke-width="6"/>
  <path d="M67 54 82 16l17 39M116 53l18-35 13 43" fill="url(#gold)" stroke="#150d0e" stroke-width="5"/>
  <path d="M73 82c9-10 22-10 31 0M118 81c10-10 19-10 29 0" stroke="#ffd15f" stroke-width="7" stroke-linecap="round" filter="url(#glow)"/>
  <path d="M93 101c15 9 35 9 49 0" stroke="#fff0d0" stroke-width="5" stroke-linecap="round"/>
  <path d="M52 98 25 116M153 96l25 18" stroke="#2d1518" stroke-width="13" stroke-linecap="round"/>
  <path d="M22 55 8 34l37 13M164 51l33-13-22 28" fill="#b25b3a"/>
  <path d="M93 66c13-8 28-8 42 0" stroke="#ff9d55" stroke-width="4" opacity=".58"/>
</svg>
