<svg xmlns="http://www.w3.org/2000/svg" viewBox="0 0 128 160">
  <defs>
    <radialGradient id="skin" cx="42%" cy="25%" r="75%"><stop offset="0" stop-color="#ffe5cf"/><stop offset=".7" stop-color="#d79878"/><stop offset="1" stop-color="#684033"/></radialGradient>
    <linearGradient id="robe" x1="0" y1="0" x2="1" y2="1"><stop offset="0" stop-color="#89f4ff"/><stop offset=".22" stop-color="#405a88"/><stop offset=".68" stop-color="#242842"/><stop offset="1" stop-color="#121421"/></linearGradient>
    <filter id="glow"><feGaussianBlur stdDeviation="3" result="b"/><feMerge><feMergeNode in="b"/><feMergeNode in="SourceGraphic"/></feMerge></filter>
  </defs>
  <ellipse cx="64" cy="143" rx="42" ry="13" fill="#000" opacity=".3"/>
  <path d="M92 82 107 48M107 48l6-26" fill="none" stroke="#7a5739" stroke-width="9" stroke-linecap="round"/>
  <circle cx="113" cy="20" r="14" fill="#7ffff7" stroke="#2a2e61" stroke-width="5" filter="url(#glow)"/>
  <path d="M24 88 10 103" stroke="#70f3ff" stroke-width="10" stroke-linecap="round" filter="url(#glow)"/>
  <path d="M38 75h52l14 52H24Z" fill="url(#robe)" stroke="#121421" stroke-width="5"/>
  <path d="M43 78h43l-11 53H54Z" fill="#69c1cd" opacity=".35"/>
  <path d="M35 44c3-26 22-40 44-29 18 9 21 29 9 52H40Z" fill="#202942" stroke="#111525" stroke-width="5"/>
  <path d="M44 66c9 12 32 12 42 0v19c-9 10-33 10-42 0Z" fill="url(#skin)" stroke="#191827" stroke-width="4"/>
  <path d="M48 75c8 5 22 5 30 0" stroke="#633c34" stroke-width="3" stroke-linecap="round"/>
  <path d="M49 57c6-5 13-5 19 0M75 57c5-5 11-5 16 0" stroke="#72e7ff" stroke-width="4" stroke-linecap="round"/>
  <path d="M52 124 42 151M80 124l11 27" fill="none" stroke="#141624" stroke-width="13" stroke-linecap="round"/>
  <path d="M82 17c18 12 23 33 10 59 22-20 25-50 4-68Z" fill="#816cff" opacity=".72"/>
  <path d="M40 88c10 10 36 10 48 0" stroke="#82f5ff" stroke-width="4" opacity=".75"/>
</svg>
