<svg xmlns="http://www.w3.org/2000/svg" viewBox="0 0 128 160">
  <defs>
    <radialGradient id="skin" cx="45%" cy="28%" r="70%"><stop offset="0" stop-color="#ffe3c2"/><stop offset=".68" stop-color="#d99870"/><stop offset="1" stop-color="#7b4a38"/></radialGradient>
    <linearGradient id="steel" x1="0" y1="0" x2="1" y2="1"><stop offset="0" stop-color="#dfe7f4"/><stop offset=".38" stop-color="#74869c"/><stop offset=".74" stop-color="#303746"/><stop offset="1" stop-color="#151923"/></linearGradient>
    <linearGradient id="gold" x1="0" y1="0" x2="1" y2="1"><stop offset="0" stop-color="#fff1a8"/><stop offset=".45" stop-color="#e2b95f"/><stop offset="1" stop-color="#704317"/></linearGradient>
    <filter id="glow"><feGaussianBlur stdDeviation="2.6" result="b"/><feMerge><feMergeNode in="b"/><feMergeNode in="SourceGraphic"/></feMerge></filter>
  </defs>
  <ellipse cx="64" cy="143" rx="42" ry="13" fill="#000" opacity=".32"/>
  <path d="M82 82 117 41" stroke="#e2b95f" stroke-width="9" stroke-linecap="round"/>
  <path d="M114 18 122 44 94 38Z" fill="url(#steel)" stroke="#191d25" stroke-width="4"/>
  <path d="M30 84 13 107M20 101l-9 21" fill="none" stroke="#6e7f93" stroke-width="12" stroke-linecap="round"/>
  <path d="M96 82 112 104" fill="none" stroke="#d2a348" stroke-width="12" stroke-linecap="round"/>
  <path d="M38 75h52l10 50-36 16-36-16Z" fill="url(#steel)" stroke="#171b25" stroke-width="5"/>
  <path d="M43 80h42l-8 48-13 7-13-7Z" fill="#2a3140" opacity=".72"/>
  <path d="M34 43c3-27 20-39 42-33 20 5 31 23 23 44l-8 25H39Z" fill="#222838" stroke="#121722" stroke-width="5"/>
  <path d="M26 45h75l-8 24H34Z" fill="url(#gold)" stroke="#221a14" stroke-width="5"/>
  <path d="M44 67c9 12 31 12 41 0v18c-8 11-33 11-41 0Z" fill="url(#skin)" stroke="#201a18" stroke-width="4"/>
  <path d="M50 74c8 5 22 5 29 0" stroke="#5b332b" stroke-width="3" stroke-linecap="round"/>
  <path d="M49 58c5-5 12-5 17 0M73 58c5-5 11-5 16 0" stroke="#171b25" stroke-width="4" stroke-linecap="round"/>
  <path d="M50 124 41 151M80 124l10 27" fill="none" stroke="#151923" stroke-width="13" stroke-linecap="round"/>
  <path d="M62 24 51 63h25Z" fill="#fff2b4" opacity=".55"/>
  <path d="M43 84c8 9 35 9 44 0" stroke="#f2d06c" stroke-width="4" opacity=".72"/>
  <circle cx="64" cy="95" r="9" fill="#72e7ff" opacity=".86" filter="url(#glow)"/>
</svg>
