<svg xmlns="http://www.w3.org/2000/svg" viewBox="0 0 160 220"><defs><radialGradient id="g" cx="50%" cy="30%" r="70%"><stop offset="0" stop-color="#ffe993" stop-opacity=".65"/><stop offset="1" stop-color="#050707" stop-opacity="0"/></radialGradient><linearGradient id="a" x1="0" x2="1" y1="0" y2="1"><stop offset="0" stop-color="#756242"/><stop offset="1" stop-color="#211c17"/></linearGradient></defs><rect width="160" height="220" fill="none"/><ellipse cx="80" cy="190" rx="45" ry="14" fill="#000" opacity=".45"/><circle cx="80" cy="84" r="58" fill="url(#g)"/><path d="M46 184 C52 120 48 100 60 75 C70 62 91 62 101 75 C115 103 109 124 116 184 Z" fill="url(#a)" stroke="#fff0ad" stroke-width="3"/><path d="M51 93 L33 174 L68 184 L78 101 Z" fill="#e4ca86" opacity=".72"/><path d="M110 93 L128 174 L92 184 L82 101 Z" fill="#e4ca86" opacity=".72"/><circle cx="80" cy="54" r="22" fill="#e7b98c"/><path d="M58 48 C64 22 96 18 106 48 C92 36 75 36 58 48Z" fill="#251c15"/><path d="M58 84 L80 104 L102 84" fill="none" stroke="#fff0ad" stroke-width="5" stroke-linecap="round"/><path d="M40 116 L18 158" stroke="#fff0ad" stroke-width="8" stroke-linecap="round"/><path d="M120 116 L145 60" stroke="#fff0ad" stroke-width="7" stroke-linecap="round"/><circle cx="145" cy="60" r="11" fill="#ffe993" opacity=".85"/><path d="M58 132 C70 142 91 142 103 132" fill="none" stroke="#fff0ad" stroke-width="4" opacity=".65"/></svg>