<svg xmlns="http://www.w3.org/2000/svg" viewBox="0 0 96 128">
  <ellipse cx="48" cy="111" rx="28" ry="10" fill="#000" opacity=".28"/>
  <path d="M27 64c8-14 34-14 42 0l8 39H19Z" fill="#e7d8ba" stroke="#2d2a24" stroke-width="4"/>
  <path d="M33 64h34l-9 42H38Z" fill="#6c8b75" stroke="#2d2a24" stroke-width="3"/>
  <path d="M28 41c3-22 19-31 37-21 12 7 13 24 4 39H31Z" fill="#5b4c3c" stroke="#241d17" stroke-width="4"/>
  <path d="M34 54c8 10 25 10 32 0v15c-6 8-25 8-32 0Z" fill="#f0c7ae" stroke="#2d2a24" stroke-width="3"/>
  <path d="M20 74 9 93M9 93l13 5" fill="none" stroke="#f2d66c" stroke-width="7" stroke-linecap="round"/>
  <path d="M68 72 85 85" fill="none" stroke="#d1b06e" stroke-width="7" stroke-linecap="round"/>
  <path d="M36 101 29 119M60 101l8 19" fill="none" stroke="#27241e" stroke-width="9" stroke-linecap="round"/>
  <path d="M48 16v28M35 30h26" stroke="#f2d66c" stroke-width="6" stroke-linecap="round"/>
</svg>
