<svg xmlns="http://www.w3.org/2000/svg" viewBox="0 0 128 160">
  <defs>
    <radialGradient id="skin" cx="43%" cy="25%" r="72%"><stop offset="0" stop-color="#ffe9cb"/><stop offset=".68" stop-color="#d79b76"/><stop offset="1" stop-color="#6f4635"/></radialGradient>
    <linearGradient id="cloth" x1="0" y1="0" x2="1" y2="1"><stop offset="0" stop-color="#fff7d6"/><stop offset=".42" stop-color="#85a88e"/><stop offset=".8" stop-color="#304338"/><stop offset="1" stop-color="#141c18"/></linearGradient>
    <filter id="glow"><feGaussianBlur stdDeviation="3" result="b"/><feMerge><feMergeNode in="b"/><feMergeNode in="SourceGraphic"/></feMerge></filter>
  </defs>
  <ellipse cx="64" cy="143" rx="42" ry="13" fill="#000" opacity=".3"/>
  <path d="M29 88 13 114M15 113l18 8" fill="none" stroke="#f2d66c" stroke-width="10" stroke-linecap="round" filter="url(#glow)"/>
  <path d="M93 85 113 104" fill="none" stroke="#cba85e" stroke-width="10" stroke-linecap="round"/>
  <path d="M36 76c10-17 46-17 56 0l13 51H23Z" fill="url(#cloth)" stroke="#17201b" stroke-width="5"/>
  <path d="M46 78h37l-10 51H55Z" fill="#f8e9c1" opacity=".42"/>
  <path d="M36 44c3-27 23-41 44-29 18 10 20 30 8 53H40Z" fill="#5b4938" stroke="#201912" stroke-width="5"/>
  <path d="M44 67c9 12 32 12 41 0v18c-8 11-33 11-41 0Z" fill="url(#skin)" stroke="#201912" stroke-width="4"/>
  <path d="M49 58c6-5 13-5 18 0M74 58c5-5 11-5 16 0" stroke="#3a3229" stroke-width="4" stroke-linecap="round"/>
  <path d="M50 76c8 6 22 6 30 0" stroke="#6b3f35" stroke-width="3" stroke-linecap="round"/>
  <path d="M52 124 42 151M80 124l11 27" fill="none" stroke="#191d17" stroke-width="13" stroke-linecap="round"/>
  <path d="M64 17v43M45 38h38" stroke="#f2d66c" stroke-width="8" stroke-linecap="round" filter="url(#glow)"/>
  <circle cx="64" cy="96" r="11" fill="#f6e486" opacity=".82" filter="url(#glow)"/>
</svg>
