<svg xmlns="http://www.w3.org/2000/svg" viewBox="0 0 112 96">
  <ellipse cx="56" cy="80" rx="35" ry="10" fill="#000" opacity=".28"/>
  <path d="M25 40 17 15l24 14 17-4 16 6 21-13-7 27c9 19-3 42-32 42-31 0-43-23-31-47Z" fill="#24283d" stroke="#111622" stroke-width="4"/>
  <path d="M38 51c7-8 15-8 22 0M67 51c6-8 13-8 19 0" fill="none" stroke="#8f70ff" stroke-width="5" stroke-linecap="round"/>
  <path d="M51 64 58 70l7-6" fill="none" stroke="#dce8ff" stroke-width="4" stroke-linecap="round"/>
  <path d="M29 34 22 21l15 9M82 32l11-8-4 15" fill="#7f6ae2"/>
</svg>
