<svg xmlns="http://www.w3.org/2000/svg" viewBox="0 0 140 150">
  <defs><linearGradient id="fur" x1="0" y1="0" x2="1" y2="1"><stop offset="0" stop-color="#484b78"/><stop offset=".5" stop-color="#1b1d31"/><stop offset="1" stop-color="#0a0b13"/></linearGradient><filter id="glow"><feGaussianBlur stdDeviation="2.8" result="b"/><feMerge><feMergeNode in="b"/><feMergeNode in="SourceGraphic"/></feMerge></filter></defs>
  <ellipse cx="70" cy="132" rx="49" ry="15" fill="#000" opacity=".34"/>
  <path d="M25 49c-10-25 21-36 33-18 11-8 30-8 42 0 16-19 43-4 28 22 15 27 8 77-58 77-60 0-75-44-45-81Z" fill="url(#fur)" stroke="#070812" stroke-width="6"/>
  <path d="M49 64c10-10 22-10 32 0M87 64c9-10 18-10 27 0" stroke="#c786ff" stroke-width="7" stroke-linecap="round" filter="url(#glow)"/>
  <path d="M64 84 74 92l10-8" stroke="#f3f2ff" stroke-width="5" stroke-linecap="round" fill="none"/>
  <path d="M53 103c13 8 34 8 47 0" stroke="#f3f2ff" stroke-width="5" stroke-linecap="round"/>
  <path d="M65 20 81 42 67 70 49 50Z" fill="#68e8ff" stroke="#7754e8" stroke-width="5" filter="url(#glow)"/>
  <path d="M35 39 25 31c-8 8-5 19 5 22M115 41l12-8c7 9 2 19-8 22" fill="#303353"/>
  <path d="M35 103 13 119M110 102l20 17" stroke="#0e1020" stroke-width="13" stroke-linecap="round"/>
</svg>
