<svg xmlns="http://www.w3.org/2000/svg" viewBox="0 0 136 112">
  <defs><linearGradient id="fur" x1="0" y1="0" x2="1" y2="1"><stop offset="0" stop-color="#6d78a8"/><stop offset=".45" stop-color="#262d4b"/><stop offset="1" stop-color="#111520"/></linearGradient><filter id="glow"><feGaussianBlur stdDeviation="2" result="b"/><feMerge><feMergeNode in="b"/><feMergeNode in="SourceGraphic"/></feMerge></filter></defs>
  <ellipse cx="68" cy="94" rx="43" ry="12" fill="#000" opacity=".3"/>
  <path d="M28 48 18 18l31 18 20-6 19 7 28-17-9 34c12 24-4 50-41 50-38 0-53-27-38-56Z" fill="url(#fur)" stroke="#101625" stroke-width="5"/>
  <path d="M45 61c9-10 19-10 28 0M81 61c8-10 17-10 25 0" fill="none" stroke="#a995ff" stroke-width="6" stroke-linecap="round" filter="url(#glow)"/>
  <path d="M62 76 70 84l9-8" fill="none" stroke="#e2edff" stroke-width="5" stroke-linecap="round"/>
  <path d="M42 42 25 25l24 11M100 40l15-11-5 21" fill="#8c77ff" opacity=".74"/>
  <path d="M47 88c11 6 33 6 44 0" stroke="#e6edff" stroke-width="4" stroke-linecap="round" opacity=".8"/>
</svg>
