<svg xmlns="http://www.w3.org/2000/svg" viewBox="0 0 112 128">
  <ellipse cx="56" cy="110" rx="38" ry="12" fill="#000" opacity=".3"/>
  <path d="M22 42c-7-19 16-27 24-13 8-6 24-6 33 0 11-14 33-3 23 17 11 19 7 63-46 63-48 0-59-35-34-67Z" fill="#17192a" stroke="#0d0d16" stroke-width="5"/>
  <path d="M40 55c8-8 18-8 25 0M69 55c7-8 14-8 20 0" stroke="#be7cff" stroke-width="5" stroke-linecap="round"/>
  <path d="M53 72 61 78l8-6" stroke="#f5f1e8" stroke-width="4" stroke-linecap="round" fill="none"/>
  <path d="M43 86c9 5 25 5 34 0" stroke="#f5f1e8" stroke-width="4" stroke-linecap="round"/>
  <path d="M53 23 64 39 54 59 41 45Z" fill="#69e9ff" stroke="#6f50df" stroke-width="4"/>
  <path d="M30 33 23 27c-5 5-3 13 4 15M92 35l8-5c4 7 1 13-7 15" fill="#282b42"/>
</svg>
